<svg width="36" height="22" viewBox="0 0 36 22" fill="none" xmlns="http://www.w3.org/2000/svg">
<path d="M34.7769 17.1041C34.8191 17.0026 34.8398 16.9446 34.8398 16.9446L34.7769 17.1041Z" fill="#6D6E6E"/>
<path d="M8.24165 11.842C6.99678 11.9909 6.43369 11.5127 6.09756 11.1613C5.96815 11.0339 5.86232 10.8853 5.78483 10.7222C5.43831 11.6191 5.6982 12.6232 6.31154 13.1048C7.52436 14.0612 11.1394 12.5398 13.8223 10.9222C13.3485 10.6439 12.8408 10.3665 12.3211 10.1138C11.2642 10.8073 9.45707 11.6974 8.24165 11.842Z" fill="url(#paint0_linear_386_3505)"/>
<path d="M13.8201 10.9243L13.8426 10.9371C14.8061 11.5083 15.7354 12.1334 16.626 12.8092L16.7049 12.8704C12.0485 8.29666 8.26969 5.29712 4.7066 5.29712C1.14352 5.29712 0 9.39437 0 11.1252C0 15.493 2.58417 16.84 4.15824 16.84C5.7323 16.84 7.50822 15.7202 8.59109 14.9544C9.54402 14.2736 13.0291 11.5464 13.8201 10.9243C11.1345 12.5411 7.50908 14.0243 6.2954 13.0678C5.68033 12.5828 5.46288 11.5906 5.78861 10.7125C6.1204 9.81728 7.01616 9.04038 8.63441 9.04038C9.745 9.04038 11.06 9.50073 12.2945 10.1023" fill="url(#paint1_linear_386_3505)"/>
<path d="M14.4405 8.67969L14.4694 8.70665L14.4405 8.67969Z" fill="#49494A"/>
<path d="M16.728 8.92474C18.212 7.86107 20.8975 6.28684 23.052 5.8401C25.2065 5.39336 26.5068 5.8401 27.6113 6.52085C28.7158 7.2016 29.376 8.39291 29.6575 9.0209C29.9629 9.72544 30.1577 10.4714 30.2353 11.2333C30.2888 11.6854 30.2926 12.1419 30.2466 12.5948C30.3725 12.0811 30.452 11.5574 30.484 11.03C30.7153 7.64068 28.1883 4.17993 24.4346 4.17993C20.6809 4.17993 16.2481 7.54112 16.0315 7.66876C15.8582 7.77258 14.8447 8.45417 14.4722 8.7086C14.7381 8.96388 15.1124 9.31787 15.5507 9.73823C15.8097 9.56634 16.1892 9.31106 16.728 8.92474Z" fill="url(#paint2_linear_386_3505)"/>
<path d="M34.3237 17.9191C33.6427 19.0253 32.2584 20.6991 30.0459 20.6991C26.5807 20.6991 22.0473 16.0045 21.7874 15.7492C21.6194 15.5841 18.5275 12.6007 16.2977 10.4598L15.5423 9.73478C15.1039 9.31441 14.7297 8.95787 14.4637 8.70514L14.4369 8.67962L14.0436 8.31201L14.0341 8.3035C13.7742 8.09077 9.05283 3.45317 5.03926 3.53827C1.0257 3.62336 0.153335 8.08992 0.0866299 8.6158C0 9.29654 0 10.1475 0 11.1261C0 9.39525 1.14438 5.29715 4.7066 5.29715C8.26883 5.29715 12.0485 8.29669 16.7049 12.8705L16.626 12.8092C17.501 13.6601 19.0629 15.208 19.3765 15.4939C19.7802 15.8624 21.9321 17.891 23.6933 19.3657C25.4545 20.8403 27.9962 22.2018 29.9887 21.9755C31.9812 21.7491 33.129 20.1528 33.7276 19.2806C34.2977 18.4509 34.982 16.721 35.1536 16.2921C35.073 16.4852 34.5766 17.5064 34.3237 17.9191Z" fill="url(#paint3_linear_386_3505)"/>
<path d="M33.0546 2.57415C31.2639 0.673159 29.5894 0.0638903 27.9287 0.00687774C26.268 -0.0501349 25.2293 0.247692 23.6119 0.885893C21.9945 1.52409 19.5984 3.38253 18.8473 3.94926C18.0962 4.51598 15.9885 6.4459 15.6134 6.81435C15.2998 7.12239 14.3529 8.02183 14.0488 8.312C14.093 8.35029 14.2316 8.48218 14.4421 8.6796L14.469 8.70513C14.845 8.44985 15.8551 7.7691 16.0283 7.66529C16.2449 7.53765 20.6778 4.17646 24.4314 4.17646C28.1851 4.17646 30.7121 7.6372 30.4808 11.0265C30.4501 11.5547 30.3718 12.0792 30.2469 12.5939C29.6786 14.8395 28.2328 15.7662 26.2108 15.7662C23.7705 15.7662 19.3671 12.5462 18.8759 12.2059C18.4557 11.9149 16.7777 10.7823 16.303 10.4623C18.5328 12.6033 21.6246 15.5866 21.7927 15.7517C22.0526 16.007 26.5859 20.7016 30.0511 20.7016C32.2637 20.7016 33.603 19.1699 34.2856 18.0637C34.4017 17.8382 34.5628 17.5285 34.782 17.1038C35.5279 15.7909 36 13.3138 36 10.6623C36 8.01077 34.8452 4.47428 33.0546 2.57415Z" fill="#7CC144"/>
<defs>
<linearGradient id="paint0_linear_386_3505" x1="5.96849" y1="11.8241" x2="10.7547" y2="11.2099" gradientUnits="userSpaceOnUse">
<stop stop-color="#448A40"/>
<stop offset="1" stop-color="#58A745"/>
</linearGradient>
<linearGradient id="paint1_linear_386_3505" x1="-0.303205" y1="11.0682" x2="13.5723" y2="11.0682" gradientUnits="userSpaceOnUse">
<stop stop-color="#34783B"/>
<stop offset="1" stop-color="#214720"/>
</linearGradient>
<linearGradient id="paint2_linear_386_3505" x1="15.7214" y1="8.3661" x2="30.163" y2="8.4587" gradientUnits="userSpaceOnUse">
<stop stop-color="#509E44"/>
<stop offset="1" stop-color="#3D843F"/>
</linearGradient>
<linearGradient id="paint3_linear_386_3505" x1="0" y1="12.7684" x2="35.1536" y2="12.7684" gradientUnits="userSpaceOnUse">
<stop stop-color="#4B9A44"/>
<stop offset="0.07" stop-color="#54A445"/>
<stop offset="0.1" stop-color="#5BAB46"/>
<stop offset="0.17" stop-color="#5BAB46"/>
<stop offset="0.6" stop-color="#5BAB46"/>
<stop offset="0.68" stop-color="#56A544"/>
<stop offset="0.81" stop-color="#49933F"/>
<stop offset="0.95" stop-color="#347537"/>
<stop offset="1" stop-color="#2B6934"/>
</linearGradient>
</defs>
</svg>
