<svg width="24" height="24" viewBox="0 0 24 24" fill="none" xmlns="http://www.w3.org/2000/svg">
<path fill-rule="evenodd" clip-rule="evenodd" d="M20.7484 7.62983C20.7484 5.29196 17.9223 4.12128 16.2687 5.77319L11.8939 10.1436C11.65 10.3873 11.4565 10.6768 11.3245 10.9953C11.1925 11.3139 11.1245 11.6554 11.1245 12.0002C11.1245 12.345 11.1925 12.6865 11.3245 13.0051C11.4565 13.3237 11.65 13.6131 11.8939 13.8568L16.2687 18.2272C17.9223 19.88 20.7484 18.7084 20.7484 16.3706V7.62983ZM17.505 7.01124C18.0562 6.46002 18.9985 6.85025 18.9985 7.62983V16.3706C18.9985 17.1493 18.0571 17.5404 17.505 16.9892L13.1302 12.6188C12.9662 12.4547 12.874 12.2322 12.874 12.0002C12.874 11.7682 12.9662 11.5457 13.1302 11.3816L17.505 7.01124Z" fill="#EC8171"/>
<path fill-rule="evenodd" clip-rule="evenodd" d="M12.8739 7.62983C12.8739 5.29196 10.0478 4.12128 8.39414 5.77319L4.0194 10.1436C3.77548 10.3873 3.58198 10.6768 3.44997 10.9953C3.31795 11.3139 3.25 11.6554 3.25 12.0002C3.25 12.345 3.31795 12.6865 3.44997 13.0051C3.58198 13.3237 3.77548 13.6131 4.0194 13.8568L8.39414 18.2272C10.0478 19.88 12.8739 18.7084 12.8739 16.3706V7.62983ZM9.63045 7.01124C10.1817 6.46002 11.124 6.85025 11.124 7.62983V16.3706C11.124 17.1493 10.1817 17.5404 9.63045 16.9892L5.2557 12.6188C5.09167 12.4547 4.99953 12.2322 4.99953 12.0002C4.99953 11.7682 5.09167 11.5457 5.2557 11.3816L9.63045 7.01124Z" fill="#EC8171"/>
</svg>
