<svg width="24" height="24" viewBox="0 0 24 24" fill="none" xmlns="http://www.w3.org/2000/svg">
<path d="M6.54567 8.16273C6.33045 8.10595 6.15157 7.95651 6.05741 7.75482C5.96325 7.55313 5.96354 7.32004 6.0582 7.11859L7.71895 3.5842C7.84271 3.32081 8.10766 3.15279 8.39868 3.15315C8.68969 3.15351 8.95422 3.32219 9.07733 3.58588L9.80996 5.15511C9.83615 5.14482 9.8632 5.13589 9.89103 5.12843C14.2383 3.96357 18.7069 6.54347 19.8717 10.8908C21.0366 15.2382 18.4567 19.7067 14.1094 20.8716C9.76204 22.0364 5.29351 19.4565 4.12864 15.1092C3.75821 13.7267 3.76655 12.3299 4.09098 11.0311C4.19137 10.6293 4.59853 10.3849 5.00039 10.4853C5.40226 10.5856 5.64665 10.9928 5.54626 11.3947C5.28197 12.4527 5.27468 13.5907 5.57753 14.721C6.52798 18.2681 10.174 20.3731 13.7211 19.4227C17.2683 18.4722 19.3733 14.8262 18.4229 11.2791C17.4879 7.7899 13.9449 5.69609 10.4533 6.53314L11.1925 8.11644C11.3156 8.38013 11.275 8.69124 11.0885 8.91457C10.9019 9.1379 10.603 9.23314 10.3216 9.15891L6.54567 8.16273Z" fill="#EC8171"/>
</svg>
