<svg width="18" height="18" viewBox="0 0 18 18" fill="none" xmlns="http://www.w3.org/2000/svg">
<path d="M7.65723 7.82827C7.65723 7.70033 7.60752 7.57225 7.50977 7.47475L4.68164 4.64663C4.48614 4.45112 4.16961 4.45112 3.97461 4.64663L1.14648 7.47475C0.950984 7.67025 0.950984 7.98678 1.14648 8.18178L1.18945 8.22475C1.38495 8.42025 1.70148 8.42025 1.89648 8.22475L3.82812 6.29311L3.82812 12.8283C3.82812 13.1043 4.05212 13.3283 4.32812 13.3283C4.60413 13.3283 4.82812 13.1043 4.82812 12.8283L4.82812 6.29311L6.75977 8.22475C6.95527 8.42025 7.2718 8.42025 7.4668 8.22475L7.50977 8.18178C7.60752 8.08403 7.65723 7.9562 7.65723 7.82827Z" fill="#9E9E9E"/>
<path d="M9.99927 10.1717C9.99927 10.2997 10.049 10.4277 10.1467 10.5252L12.9749 13.3534C13.1704 13.5489 13.4869 13.5489 13.6819 13.3534L16.51 10.5252C16.7055 10.3298 16.7055 10.0132 16.51 9.81822L16.467 9.77525C16.2715 9.57975 15.955 9.57975 15.76 9.77525L13.8284 11.7069V5.17173C13.8284 4.89573 13.6044 4.67173 13.3284 4.67173C13.0524 4.67173 12.8284 4.89573 12.8284 5.17173V11.7069L10.8967 9.77525C10.7012 9.57975 10.3847 9.57975 10.1897 9.77525L10.1467 9.81822C10.049 9.91597 9.99927 10.0438 9.99927 10.1717Z" fill="black"/>
</svg>
